<svg xmlns="http://www.w3.org/2000/svg" viewBox="0 0 1200 480" role="img" aria-label="原创动态视觉素材 030">
  <style>.motion{animation:breathe 4.8s ease-in-out infinite;transform-box:fill-box;transform-origin:center}@keyframes breathe{0%,100%{transform:none;opacity:1}50%{opacity:.55;transform:scale(.92)}}@media(prefers-reduced-motion:reduce){.motion{animation:none}}</style>
  <defs>
    <linearGradient id="g2" x1="0" y1="0" x2="1" y2="1"><stop stop-color="#d8322f"/><stop offset="1" stop-color="#8f171a"/></linearGradient>
    <linearGradient id="fade2" x1="0" y1="0" x2="1" y2="0"><stop stop-color="#d8322f" stop-opacity="0"/><stop offset=".5" stop-color="#d8322f" stop-opacity=".65"/><stop offset="1" stop-color="#d8322f" stop-opacity="0"/></linearGradient>
    <pattern id="dots2" width="28" height="28" patternUnits="userSpaceOnUse"><circle cx="3" cy="3" r="2" fill="#8f171a" opacity=".16"/></pattern>
    <filter id="soft2"><feGaussianBlur stdDeviation="18"/></filter>
  </defs>
  <rect width="1200" height="480" fill="#fff5ed"/>
  <rect width="1200" height="480" fill="url(#dots2)"/>
  <path d="M0 0h440L260 210H0Z" fill="#8f171a" opacity=".95"/><path d="M1200 480H760l185-205h255Z" fill="#d8322f" opacity=".92"/><path d="M0 430C260 330 340 360 570 440" fill="none" stroke="#e5b75b" stroke-width="12" opacity=".55"/><g fill="#e5b75b"><path d="m995 72 8 24h25l-20 15 8 24-21-15-20 15 8-24-20-15h25Z"/><circle cx="1055" cy="190" r="8"/><circle cx="1090" cy="160" r="5"/></g>
  <g class="motion" transform-origin="600px 240px"><rect x="165" y="90" width="870" height="300" rx="150" fill="#d8322f" opacity=".26"/><path d="M330 240h540" stroke="#8f171a" stroke-width="10" stroke-linecap="round"/><circle cx="600" cy="240" r="74" fill="#e5b75b" opacity=".8"/></g>
</svg>
