<svg xmlns="http://www.w3.org/2000/svg" viewBox="0 0 1200 480" role="img" aria-label="原创高级排版素材 175">
  <defs>
    <linearGradient id="g8" x1="0" y1="0" x2="1" y2="1"><stop stop-color="#658799"/><stop offset="1" stop-color="#415a63"/></linearGradient>
    <linearGradient id="fade8" x1="0" y1="0" x2="1" y2="0"><stop stop-color="#658799" stop-opacity="0"/><stop offset=".5" stop-color="#658799" stop-opacity=".65"/><stop offset="1" stop-color="#658799" stop-opacity="0"/></linearGradient>
    <pattern id="dots8" width="28" height="28" patternUnits="userSpaceOnUse"><circle cx="3" cy="3" r="2" fill="#415a63" opacity=".16"/></pattern>
    <filter id="soft8"><feGaussianBlur stdDeviation="18"/></filter>
  </defs>
  <path d="M18 388c240-96 300 15 504-64 240-92 300 42 648-54" fill="none" stroke="#415a63" stroke-width="5" stroke-linecap="round" stroke-dasharray="3 14" opacity=".35"/><path d="M74 74q58-45 110 2" fill="none" stroke="#658799" stroke-width="7" opacity=".45"/>
  <rect x="80" y="45" width="1040" height="390" rx="34" fill="#f6f7f2" stroke="#415a63" stroke-width="7"/><path d="M80 145V45h100M1020 45h100v100M1120 335v100h-100M180 435H80V335" fill="none" stroke="#658799" stroke-width="18" stroke-linecap="round"/><path d="M170 345c180-92 270 65 430-8 170-78 266 61 430-18" fill="none" stroke="#8eae80" stroke-width="5" stroke-dasharray="12 14"/><rect x="142" y="108" width="916" height="252" rx="18" fill="#ffffff" opacity=".72"/><path d="M190 165h340M190 218h520M190 271h430" stroke="#415a63" stroke-width="12" stroke-linecap="round" opacity=".42"/>
</svg>
