<svg xmlns="http://www.w3.org/2000/svg" viewBox="0 0 480 480" role="img" aria-label="原创高级排版素材 131">
  <defs>
    <linearGradient id="g0" x1="0" y1="0" x2="1" y2="1"><stop stop-color="#8fb8a3"/><stop offset="1" stop-color="#365c54"/></linearGradient>
    <linearGradient id="fade0" x1="0" y1="0" x2="1" y2="0"><stop stop-color="#8fb8a3" stop-opacity="0"/><stop offset=".5" stop-color="#8fb8a3" stop-opacity=".65"/><stop offset="1" stop-color="#8fb8a3" stop-opacity="0"/></linearGradient>
    <pattern id="dots0" width="28" height="28" patternUnits="userSpaceOnUse"><circle cx="3" cy="3" r="2" fill="#365c54" opacity=".16"/></pattern>
    <filter id="soft0"><feGaussianBlur stdDeviation="18"/></filter>
  </defs>
  <path d="M0 442Q76.8 335 153.6 422T326.40000000000003 398T480 436" fill="none" stroke="#8fb8a3" stroke-width="8" opacity=".34"/><circle cx="403.2" cy="72" r="24" fill="#e7b66b" opacity=".55"/>
  <g transform="rotate(-5 240 240)"><path d="M74 92h332v245H238l-86 68 18-68H74Z" fill="#ffffff" stroke="#365c54" stroke-width="11" stroke-linejoin="round"/><path d="M132 157h160M132 207h215M132 257h128" stroke="#8fb8a3" stroke-width="16" stroke-linecap="round"/><path d="m339 74 10 29 29 10-29 10-10 29-10-29-29-10 29-10Z" fill="#e7b66b"/></g>
</svg>
