<svg xmlns="http://www.w3.org/2000/svg" viewBox="0 0 480 480" role="img" aria-label="原创高级排版素材 168">
  <defs>
    <linearGradient id="g7" x1="0" y1="0" x2="1" y2="1"><stop stop-color="#242424"/><stop offset="1" stop-color="#ef7049"/></linearGradient>
    <linearGradient id="fade7" x1="0" y1="0" x2="1" y2="0"><stop stop-color="#242424" stop-opacity="0"/><stop offset=".5" stop-color="#242424" stop-opacity=".65"/><stop offset="1" stop-color="#242424" stop-opacity="0"/></linearGradient>
    <pattern id="dots7" width="28" height="28" patternUnits="userSpaceOnUse"><circle cx="3" cy="3" r="2" fill="#ef7049" opacity=".16"/></pattern>
    <filter id="soft7"><feGaussianBlur stdDeviation="18"/></filter>
  </defs>
  <rect x="28" y="28" width="153.6" height="11" fill="#ef7049" opacity=".45"/><rect x="336" y="42" width="105.6" height="7" fill="#b9b9b9" opacity=".72"/><path d="M259.20000000000005 0v480" stroke="#ef7049" opacity=".1"/>
  <g transform="rotate(7 240 240)"><path d="M66 128h348l-22 224H88Z" fill="#242424" opacity=".78" stroke="#ef7049" stroke-width="9"/><path d="M86 128 65 57l118 20 15 51Zm196 0 17-70 120 25-24 45Z" fill="#b9b9b9" opacity=".88"/><path d="M120 196h238M120 250h184" stroke="#ffffff" stroke-width="15" stroke-linecap="round"/><path d="m340 286 16 34 37 5-27 26 7 37-33-18-33 18 7-37-27-26 37-5Z" fill="#faf9f6"/></g>
</svg>
