<svg xmlns="http://www.w3.org/2000/svg" viewBox="0 0 480 480" role="img" aria-label="原创高级排版素材 156">
  <defs>
    <linearGradient id="g5" x1="0" y1="0" x2="1" y2="1"><stop stop-color="#46b8e9"/><stop offset="1" stop-color="#ff806e"/></linearGradient>
    <linearGradient id="fade5" x1="0" y1="0" x2="1" y2="0"><stop stop-color="#46b8e9" stop-opacity="0"/><stop offset=".5" stop-color="#46b8e9" stop-opacity=".65"/><stop offset="1" stop-color="#46b8e9" stop-opacity="0"/></linearGradient>
    <pattern id="dots5" width="28" height="28" patternUnits="userSpaceOnUse"><circle cx="3" cy="3" r="2" fill="#ff806e" opacity=".16"/></pattern>
    <filter id="soft5"><feGaussianBlur stdDeviation="18"/></filter>
  </defs>
  <path d="M38 95c38-74 128-64 151 4 62-32 118 35 76 91" fill="none" stroke="#46b8e9" stroke-width="16" stroke-linecap="round" opacity=".4"/><g fill="#ffd359" opacity=".55"><circle cx="415" cy="350" r="22"/><circle cx="376" cy="392" r="11"/><circle cx="352" cy="330" r="7"/></g>
  <g transform="rotate(5 240 240)"><path d="M74 92h332v245H238l-86 68 18-68H74Z" fill="#ffffff" stroke="#ff806e" stroke-width="11" stroke-linejoin="round"/><path d="M132 157h160M132 207h215M132 257h128" stroke="#46b8e9" stroke-width="16" stroke-linecap="round"/><path d="m339 74 10 29 29 10-29 10-10 29-10-29-29-10 29-10Z" fill="#ffd359"/></g>
</svg>
