<svg xmlns="http://www.w3.org/2000/svg" viewBox="0 0 480 480" role="img" aria-label="原创高级排版素材 173">
  <defs>
    <linearGradient id="g8" x1="0" y1="0" x2="1" y2="1"><stop stop-color="#658799"/><stop offset="1" stop-color="#415a63"/></linearGradient>
    <linearGradient id="fade8" x1="0" y1="0" x2="1" y2="0"><stop stop-color="#658799" stop-opacity="0"/><stop offset=".5" stop-color="#658799" stop-opacity=".65"/><stop offset="1" stop-color="#658799" stop-opacity="0"/></linearGradient>
    <pattern id="dots8" width="28" height="28" patternUnits="userSpaceOnUse"><circle cx="3" cy="3" r="2" fill="#415a63" opacity=".16"/></pattern>
    <filter id="soft8"><feGaussianBlur stdDeviation="18"/></filter>
  </defs>
  <path d="M18 388c96-96 120 15 201.6-64 96-92 120 42 259.20000000000005-54" fill="none" stroke="#415a63" stroke-width="5" stroke-linecap="round" stroke-dasharray="3 14" opacity=".35"/><path d="M74 74q58-45 110 2" fill="none" stroke="#658799" stroke-width="7" opacity=".45"/>
  <g transform="rotate(-8 240 240)"><path d="M66 128h348l-22 224H88Z" fill="#658799" opacity=".78" stroke="#415a63" stroke-width="9"/><path d="M86 128 65 57l118 20 15 51Zm196 0 17-70 120 25-24 45Z" fill="#8eae80" opacity=".88"/><path d="M120 196h238M120 250h184" stroke="#ffffff" stroke-width="15" stroke-linecap="round"/><path d="m340 286 16 34 37 5-27 26 7 37-33-18-33 18 7-37-27-26 37-5Z" fill="#f6f7f2"/></g>
</svg>
