<svg xmlns="http://www.w3.org/2000/svg" viewBox="0 0 1200 480" role="img" aria-label="原创视觉素材 010">
  <defs>
    <linearGradient id="g0" x1="0" y1="0" x2="1" y2="1"><stop stop-color="#8fb8a3"/><stop offset="1" stop-color="#365c54"/></linearGradient>
    <linearGradient id="fade0" x1="0" y1="0" x2="1" y2="0"><stop stop-color="#8fb8a3" stop-opacity="0"/><stop offset=".5" stop-color="#8fb8a3" stop-opacity=".65"/><stop offset="1" stop-color="#8fb8a3" stop-opacity="0"/></linearGradient>
    <pattern id="dots0" width="28" height="28" patternUnits="userSpaceOnUse"><circle cx="3" cy="3" r="2" fill="#365c54" opacity=".16"/></pattern>
    <filter id="soft0"><feGaussianBlur stdDeviation="18"/></filter>
  </defs>
  <rect width="1200" height="480" fill="#f7f2e8"/>
  <path d="M0 360 Q160 250 310 330 T610 300 T910 325 T1200 260 V480H0Z" fill="#8fb8a3" opacity=".28"/><path d="M0 405 Q220 300 420 390 T820 350 T1200 330 V480H0Z" fill="#365c54" opacity=".18"/><path d="M950 75q80 58 155 0" fill="none" stroke="#e7b66b" stroke-width="5" opacity=".6"/><circle cx="1020" cy="88" r="28" fill="#e7b66b" opacity=".42"/>
  <g transform="translate(620 240) rotate(-8)"><path d="M0-90c50-55 135-22 140 45 65 18 68 110 6 138-18 68-112 73-140 13-68 13-108-68-61-118-22-70 60-119 105-78Z" fill="#ffffff" stroke="#8fb8a3" stroke-width="7"/><path d="m30 8 24 24 55-65" fill="none" stroke="#e7b66b" stroke-width="13" stroke-linecap="round" stroke-linejoin="round"/></g>
</svg>
