<svg xmlns="http://www.w3.org/2000/svg" viewBox="0 0 1200 480" role="img" aria-label="原创视觉素材 085">
  <defs>
    <linearGradient id="g8" x1="0" y1="0" x2="1" y2="1"><stop stop-color="#658799"/><stop offset="1" stop-color="#415a63"/></linearGradient>
    <linearGradient id="fade8" x1="0" y1="0" x2="1" y2="0"><stop stop-color="#658799" stop-opacity="0"/><stop offset=".5" stop-color="#658799" stop-opacity=".65"/><stop offset="1" stop-color="#658799" stop-opacity="0"/></linearGradient>
    <pattern id="dots8" width="28" height="28" patternUnits="userSpaceOnUse"><circle cx="3" cy="3" r="2" fill="#415a63" opacity=".16"/></pattern>
    <filter id="soft8"><feGaussianBlur stdDeviation="18"/></filter>
  </defs>
  <rect width="1200" height="480" fill="#f6f7f2"/>
  <path d="M25 385c135-75 205-18 318-68 145-65 202 28 350-31 140-56 233 42 482-34" fill="none" stroke="#415a63" stroke-width="5" stroke-linecap="round" stroke-dasharray="2 14" opacity=".42"/><path d="M170 95q70-58 135 0-65 42-135 0Zm740 22q58-55 120 2-60 43-120-2Z" fill="none" stroke="#658799" stroke-width="6" opacity=".55"/><g fill="#8eae80" opacity=".45"><circle cx="105" cy="120" r="7"/><circle cx="135" cy="95" r="4"/><circle cx="1080" cy="320" r="10"/></g>
  <rect x="145" y="60" width="910" height="360" rx="26" fill="#ffffff" opacity=".45" stroke="#415a63" stroke-width="8"/><rect x="170" y="85" width="860" height="310" rx="18" fill="none" stroke="#8eae80" stroke-width="2" stroke-dasharray="12 12"/>
</svg>
